ply
format ascii 1.0
element vertex 48
property float x
property float y
property float z
property float nx
property float ny
property float nz
property float s
property float t
element face 36
property list uchar int vertex_index
end_header
0.047780760406597955 0.8060930809420819 0 0 0 1 0.5 0.5
1.047780760406598 0.8060930809420819 0 0 0 1 1 0.5
0.7548875294915284 1.5131998500270123 0 0 0 1 0.8535534143447876 0.8535534143447876
0.04778076040659802 1.8060930809420819 0 0 0 1 0.5 1
-0.6593260086783325 1.5131998500270123 0 0 0 1 0.1464466154575348 0.8535534143447876
-0.952219239593402 0.806093080942082 0 0 0 1 0 0.5
-0.6593260086783325 0.09898631185715145 0 0 0 1 0.1464466154575348 0.1464466154575348
0.047780760406597775 -0.19390691905791813 0 0 0 1 0.5 0
0.7548875294915284 0.09898631185715145 0 0 0 1 0.8535534143447876 0.1464466154575348
1.047780760406598 0.8060930809420817 0 0 0 1 1 0.5
0.06 2.125831042406187 0 0 0 1 0.5 0.5
0.8400000000000001 2.125831042406187 0 0 0 1 1 0.5
0.6115432798862457 2.6773743222924327 0 0 0 1 0.8535534143447876 0.8535534143447876
0.060000000000000046 2.905831042406187 0 0 0 1 0.5 1
-0.49154327988624574 2.6773743222924327 0 0 0 1 0.1464466154575348 0.8535534143447876
-0.72 2.125831042406187 0 0 0 1 0 0.5
-0.49154327988624574 1.574287762519941 0 0 0 1 0.1464466154575348 0.1464466154575348
0.05999999999999985 1.3458310424061868 0 0 0 1 0.5 0
0.6115432798862457 1.574287762519941 0 0 0 1 0.8535534143447876 0.1464466154575348
0.8400000000000001 2.125831042406187 0 0 0 1 1 0.5
-0.21773645074390013 2.294887967469536 0.07336711740201673 0 0 1 0.5 0.5
-0.09773645074390014 2.294887967469536 0.07336711740201673 0 0 1 1 0.5
-0.13288363845370849 2.379740779759728 0.07336711740201673 0 0 1 0.8535534143447876 0.8535534143447876
-0.21773645074390013 2.4148879674695363 0.07336711740201673 0 0 1 0.5 1
-0.3025892630340918 2.379740779759728 0.07336711740201673 0 0 1 0.1464466154575348 0.8535534143447876
-0.33773645074390013 2.294887967469536 0.07336711740201673 0 0 1 0 0.5
-0.3025892630340918 2.2100351551793445 0.07336711740201673 0 0 1 0.1464466154575348 0.1464466154575348
-0.21773645074390016 2.174887967469536 0.07336711740201673 0 0 1 0.5 0
-0.13288363845370849 2.2100351551793445 0.07336711740201673 0 0 1 0.8535534143447876 0.1464466154575348
-0.09773645074390014 2.294887967469536 0.07336711740201673 0 0 1 1 0.5
0.2504680955670653 2.3100345596642406 0.019326865216670486 0 0 1 0.5 0.5
0.3904680955670653 2.3100345596642406 0.019326865216670486 0 0 1 1 0.5
0.34946304323895555 2.409029507336131 0.019326865216670486 0 0 1 0.8535534143447876 0.8535534143447876
0.2504680955670653 2.4500345596642408 0.019326865216670486 0 0 1 0.5 1
0.15147314789517502 2.409029507336131 0.019326865216670486 0 0 1 0.1464466154575348 0.8535534143447876
0.11046809556706527 2.3100345596642406 0.019326865216670486 0 0 1 0 0.5
0.15147314789517502 2.21103961199235 0.019326865216670486 0 0 1 0.1464466154575348 0.1464466154575348
0.2504680955670653 2.1700345596642405 0.019326865216670486 0 0 1 0.5 0
0.34946304323895555 2.21103961199235 0.019326865216670486 0 0 1 0.8535534143447876 0.1464466154575348
0.3904680955670653 2.3100345596642406 0.019326865216670486 0 0 1 1 0.5
0.7007827308642117 1.6145703849518278 0.04221223856969436 0.2756373558169992 0 0.9612616959383188 0 1
1.980916811941381 1.976391451476221 -0.3248603023317757 0.2756373558169992 0 0.9612616959383188 1 1
0.7259859723159109 1.5180687355045965 0.03498532537725446 0.2756373558169992 0 0.9612616959383188 0 0
2.0061200533930803 1.8798898020289898 -0.3320872155242156 0.2756373558169992 0 0.9612616959383188 1 0
-1.7851121989450536 1.8557418695840555 -0.051392935038124136 -0.052335956242943835 -0.020913719024751695 0.9984105187950949 0 1
-0.42473106674674976 1.6336611392110076 0.015265330434619619 -0.052335956242943835 -0.020913719024751695 0.9984105187950949 1 1
-1.801078406553124 1.7570674162491149 -0.05429680722309325 -0.052335956242943835 -0.020913719024751695 0.9984105187950949 0 0
-0.4406972743548204 1.534986685876067 0.012361458249650507 -0.052335956242943835 -0.020913719024751695 0.9984105187950949 1 0
3 1 2 0
3 2 3 0
3 3 4 0
3 4 5 0
3 5 6 0
3 6 7 0
3 7 8 0
3 8 9 0
3 11 12 10
3 12 13 10
3 13 14 10
3 14 15 10
3 15 16 10
3 16 17 10
3 17 18 10
3 18 19 10
3 21 22 20
3 22 23 20
3 23 24 20
3 24 25 20
3 25 26 20
3 26 27 20
3 27 28 20
3 28 29 20
3 31 32 30
3 32 33 30
3 33 34 30
3 34 35 30
3 35 36 30
3 36 37 30
3 37 38 30
3 38 39 30
3 40 42 41
3 42 43 41
3 44 46 45
3 46 47 45

